<svg width="36" height="36" viewBox="0 0 36 36" fill="none" xmlns="http://www.w3.org/2000/svg">
<g clip-path="url(#clip0_0_63)">
<path d="M18 36C27.9411 36 36 27.9411 36 18C36 8.05887 27.9411 0 18 0C8.05887 0 0 8.05887 0 18C0 27.9411 8.05887 36 18 36Z" fill="#A5EED1"/>
<path d="M24.1726 30.0913C22.3755 28.6006 20.1143 27.7841 17.7794 27.7827H17.6571C15.3226 27.7843 13.0619 28.6008 11.2651 30.0913C10.1744 30.9954 9.29374 32.1264 8.68457 33.4056C10.9456 34.7708 13.479 35.6227 16.1055 35.9009C18.7321 36.1792 21.3877 35.877 23.8846 35.0159C24.9197 34.6581 25.9197 34.2059 26.872 33.665C26.2613 32.2807 25.3372 31.0572 24.1726 30.0913Z" fill="white"/>
<path d="M17.7965 6.32812H17.7954C12.0971 6.32812 7.47766 10.9475 7.47766 16.6458V19.1041C7.47766 24.8024 12.0971 29.4218 17.7954 29.4218H17.7965C23.4948 29.4218 28.1142 24.8024 28.1142 19.1041V16.6458C28.1142 10.9475 23.4948 6.32812 17.7965 6.32812Z" fill="#F9E159"/>
<path d="M15.4583 26.1235V29.3967C15.4583 30.0168 15.7046 30.6116 16.1431 31.0501C16.5816 31.4886 17.1764 31.735 17.7965 31.735C18.1036 31.735 18.4077 31.6745 18.6914 31.557C18.9751 31.4395 19.2328 31.2672 19.45 31.0501C19.6671 30.833 19.8393 30.5752 19.9568 30.2915C20.0743 30.0078 20.1348 29.7037 20.1348 29.3967V26.1235H15.4583Z" fill="#F5BE93"/>
<g style="mix-blend-mode:multiply" opacity="0.5">
<path d="M15.4583 29.1428C16.2165 29.372 17.0045 29.4875 17.7965 29.4857C18.5886 29.4875 19.3766 29.372 20.1348 29.1428V27.2217H15.4583V29.1428Z" fill="#F5BE93"/>
</g>
<path d="M25.2777 24.3301C26.6196 24.3301 27.7075 23.2423 27.7075 21.9004C27.7075 20.5585 26.6196 19.4707 25.2777 19.4707C23.9358 19.4707 22.848 20.5585 22.848 21.9004C22.848 23.2423 23.9358 24.3301 25.2777 24.3301Z" fill="#F5BE93"/>
<path d="M10.2639 24.3301C11.6058 24.3301 12.6937 23.2423 12.6937 21.9004C12.6937 20.5585 11.6058 19.4707 10.2639 19.4707C8.92205 19.4707 7.83423 20.5585 7.83423 21.9004C7.83423 23.2423 8.92205 24.3301 10.2639 24.3301Z" fill="#F5BE93"/>
<g style="mix-blend-mode:multiply" opacity="0.5">
<path d="M25.2777 23.2274C26.0105 23.2274 26.6045 22.6334 26.6045 21.9006C26.6045 21.1678 26.0105 20.5737 25.2777 20.5737C24.5449 20.5737 23.9508 21.1678 23.9508 21.9006C23.9508 22.6334 24.5449 23.2274 25.2777 23.2274Z" fill="#F5BE93"/>
</g>
<g style="mix-blend-mode:multiply" opacity="0.5">
<path d="M10.264 23.2274C10.9968 23.2274 11.5908 22.6334 11.5908 21.9006C11.5908 21.1678 10.9968 20.5737 10.264 20.5737C9.53119 20.5737 8.93713 21.1678 8.93713 21.9006C8.93713 22.6334 9.53119 23.2274 10.264 23.2274Z" fill="#F5BE93"/>
</g>
<path d="M17.7143 28.4572C14.7555 28.4572 9.72119 24.8789 9.72119 20.464V16.9829C9.72119 14.863 10.5633 12.8299 12.0623 11.3309C13.5613 9.83188 15.5944 8.98975 17.7143 8.98975C19.8349 8.98975 21.8687 9.83166 23.3688 11.3305C24.8689 12.8293 25.7125 14.8623 25.7143 16.9829V20.4686C25.7143 24.8835 20.6778 28.4572 17.7143 28.4572Z" fill="#F5BE93"/>
<path d="M22.3658 18.7202C22.3658 18.409 22.1135 18.1567 21.8023 18.1567C21.4911 18.1567 21.2389 18.409 21.2389 18.7202V19.2322C21.2389 19.5433 21.4911 19.7956 21.8023 19.7956C22.1135 19.7956 22.3658 19.5433 22.3658 19.2322V18.7202Z" fill="#353535"/>
<path d="M14.3692 18.7202C14.3692 18.409 14.1169 18.1567 13.8057 18.1567C13.4946 18.1567 13.2423 18.409 13.2423 18.7202V19.2322C13.2423 19.5433 13.4946 19.7956 13.8057 19.7956C14.1169 19.7956 14.3692 19.5433 14.3692 19.2322V18.7202Z" fill="#353535"/>
<path d="M20.1348 23.144C20.1348 23.4511 20.0743 23.7552 19.9568 24.0389C19.8393 24.3226 19.6671 24.5803 19.45 24.7975C19.2328 25.0146 18.9751 25.1868 18.6914 25.3043C18.4077 25.4218 18.1036 25.4823 17.7965 25.4823C17.4895 25.4823 17.1854 25.4218 16.9017 25.3043C16.618 25.1868 16.3603 25.0146 16.1431 24.7975C15.926 24.5803 15.7538 24.3226 15.6362 24.0389C15.5187 23.7552 15.4583 23.4511 15.4583 23.144H20.1348Z" fill="white"/>
<g style="mix-blend-mode:multiply" opacity="0.5">
<g style="mix-blend-mode:multiply" opacity="0.5">
<path d="M18.6492 20.8388C18.6913 20.8418 18.7316 20.8575 18.7646 20.8838C18.7977 20.9101 18.822 20.9458 18.8343 20.9862C18.8622 21.0506 18.869 21.1222 18.8538 21.1907C18.8386 21.2593 18.8022 21.3213 18.7498 21.3679C18.4757 21.5769 18.1407 21.6901 17.796 21.6901C17.4514 21.6901 17.1163 21.5769 16.8423 21.3679C16.791 21.3205 16.7554 21.2585 16.7403 21.1903C16.7252 21.1221 16.7313 21.0509 16.7578 20.9862C16.8138 20.849 16.9418 20.7988 17.0435 20.8719C17.2599 21.0364 17.5242 21.1255 17.796 21.1255C18.0679 21.1255 18.3322 21.0364 18.5486 20.8719C18.5776 20.8501 18.6129 20.8384 18.6492 20.8388Z" fill="#F5BE93"/>
</g>
</g>
<path d="M8.93713 18.1565C8.93713 18.1565 17.8811 18.7645 21.8023 13.1348C21.8023 13.1348 23.3886 16.9177 26.6023 17.4605V12.9142L21.2388 8.01709H14.048L9.43885 13.1348L8.93713 18.1565Z" fill="#F9E159"/>
<path d="M22.792 5.26721C23.376 5.85121 24.1142 8.71178 24.1142 8.71178C24.1142 8.71178 21.2571 7.96892 20.6697 7.38492C20.3888 7.10409 20.2311 6.72321 20.2311 6.32606C20.2311 6.12942 20.2698 5.93469 20.3451 5.75301C20.4203 5.57133 20.5306 5.40626 20.6697 5.26721C20.8087 5.12816 20.9738 5.01785 21.1555 4.9426C21.3372 4.86735 21.5319 4.82861 21.7285 4.82861C22.1257 4.82861 22.5066 4.98638 22.7874 5.26721H22.792Z" fill="#D0EBED"/>
<path d="M25.1097 11.8207C24.5246 11.2356 23.7817 8.375 23.7817 8.375C23.7817 8.375 26.6389 9.11786 27.2275 9.703C27.3665 9.84205 27.4768 10.0071 27.5521 10.1888C27.6273 10.3705 27.666 10.5652 27.666 10.7619C27.666 10.9585 27.6273 11.1532 27.5521 11.3349C27.4768 11.5166 27.3665 11.6817 27.2275 11.8207C27.0884 11.9598 26.9233 12.0701 26.7416 12.1453C26.56 12.2206 26.3652 12.2593 26.1686 12.2593C25.9719 12.2593 25.7772 12.2206 25.5955 12.1453C25.4139 12.0701 25.2488 11.9598 25.1097 11.8207Z" fill="#D0EBED"/>
<path d="M24.1303 10.0104C24.8423 10.0104 25.4195 9.43325 25.4195 8.72127C25.4195 8.0093 24.8423 7.43213 24.1303 7.43213C23.4184 7.43213 22.8412 8.0093 22.8412 8.72127C22.8412 9.43325 23.4184 10.0104 24.1303 10.0104Z" fill="#8ED5E9"/>
</g>
<defs>
<clipPath id="clip0_0_63">
<rect width="36" height="36" fill="white"/>
</clipPath>
</defs>
</svg>
