<svg width="42" height="42" viewBox="0 0 42 42" fill="none" xmlns="http://www.w3.org/2000/svg">
<path d="M22.6758 37.2644L37.268 22.6722L35.5281 20.9323L34.07 22.3905L32.3124 20.633C30.297 18.6177 27.3455 17.8622 24.6097 18.6613L22.8114 19.1866L23.3367 17.3883C24.136 14.6525 23.3804 11.7009 21.365 9.68558L19.6075 7.92806L21.0657 6.46987L19.3258 4.72999L4.73341 19.3221L6.47329 21.062L7.93148 19.6038L9.689 21.3614C11.1731 22.8455 13.1648 23.6464 15.2043 23.6464C15.9344 23.6464 16.6706 23.5438 17.3918 23.3331L19.1901 22.8078L18.6648 24.6061C17.8656 27.3419 18.6212 30.2935 20.6365 32.3089L22.394 34.0664L20.9358 35.5246L22.6758 37.2644ZM24.6377 29.075L25.6343 25.6636L29.0456 24.6671C29.9841 24.3928 30.965 24.366 31.8866 24.5739L24.5673 31.8932C24.3494 30.9712 24.3681 29.9979 24.6377 29.075ZM16.7018 20.9712C14.8289 21.5183 12.8085 21.0012 11.4289 19.6215L9.67137 17.8639L17.8675 9.66778L19.6251 11.4254C21.0047 12.805 21.5219 14.8254 20.9749 16.6983L20.0089 20.0052L16.7018 20.9712ZM21.0266 25.2961L21.9926 21.9891L25.2996 21.0231C26.9888 20.5296 28.7982 20.9024 30.1491 21.9927C29.5471 22.0297 28.9451 22.133 28.3557 22.3052L23.6503 23.6798L22.2758 28.3851C22.1099 28.953 22.0102 29.5342 21.9739 30.1173C20.9011 28.7694 20.5366 26.9738 21.0266 25.2961Z" fill="white"/>
<path d="M2.73809 17.8104C3.3927 14.038 5.17524 10.6074 7.89302 7.88972C11.0652 4.71757 15.2741 2.80443 19.7445 2.50289C23.7601 2.23243 27.7397 3.26931 31.081 5.43707C30.9497 5.82081 30.8806 6.22752 30.8806 6.64506C30.8806 7.6392 31.2677 8.57386 31.9707 9.27687C32.6963 10.0024 33.6494 10.3653 34.6025 10.3653C35.5556 10.3653 36.5088 10.0024 37.2343 9.27687C37.9373 8.57386 38.3244 7.63928 38.3244 6.64506C38.3244 5.65084 37.9373 4.71617 37.2343 4.01325C36.5313 3.31024 35.5967 2.92305 34.6025 2.92305C33.8864 2.92305 33.2018 3.12493 32.6117 3.49998C28.7866 0.957826 24.2041 -0.264032 19.5789 0.0477697C14.5143 0.389512 9.74636 2.55662 6.15314 6.14992C3.07483 9.22823 1.05555 13.1149 0.313736 17.3898C-0.411339 21.5684 0.125966 25.8111 1.86757 29.6595L4.10925 28.645C2.57173 25.2476 2.09767 21.5012 2.73809 17.8104ZM34.5775 5.28096C35.3307 5.28096 35.9413 5.89152 35.9413 6.64473C35.9413 7.39794 35.3307 8.0085 34.5775 8.0085C33.8243 8.0085 33.2137 7.39794 33.2137 6.64473C33.2137 5.89152 33.8243 5.28096 34.5775 5.28096Z" fill="white"/>
<path d="M40.2641 12.6314L38.0069 13.6109C39.471 16.9847 39.8966 20.6887 39.2376 24.3226C38.5633 28.0399 36.7893 31.4224 34.1073 34.1045C30.9385 37.2733 26.7343 39.1861 22.269 39.4905C21.8457 39.5194 21.4235 39.5336 21.0017 39.5336C17.3668 39.5335 13.8125 38.4687 10.7919 36.4732C11.2518 35.1641 10.9595 33.6473 9.91454 32.6024C9.21153 31.8994 8.27695 31.5123 7.28273 31.5123C6.28851 31.5123 5.35384 31.8994 4.65092 32.6024C3.1997 34.0535 3.1997 36.4148 4.65092 37.8659C5.35393 38.5689 6.28851 38.956 7.28273 38.956C7.98689 38.956 8.66078 38.7609 9.24402 38.3978C12.708 40.7419 16.8077 41.9942 21.0018 41.9942C21.479 41.9942 21.9575 41.978 22.4363 41.9454C27.495 41.6006 32.2578 39.4339 35.8471 35.8443C38.8851 32.8064 40.8946 28.9741 41.6586 24.7618C42.4047 20.6475 41.9225 16.4529 40.2641 12.6314ZM7.28265 36.5978C6.52944 36.5978 5.91888 35.9872 5.91888 35.234C5.91888 34.4808 6.52944 33.8703 7.28265 33.8703C8.03586 33.8703 8.64642 34.4808 8.64642 35.234C8.64642 35.9872 8.03586 36.5978 7.28265 36.5978Z" fill="white"/>
</svg>
