<svg width="20" height="16" viewBox="0 0 20 16" fill="none" xmlns="http://www.w3.org/2000/svg">
<path fill-rule="evenodd" clip-rule="evenodd" d="M2.64655 2.01373C2.69581 2.00474 2.74706 1.99999 2.79998 1.99999H17.1999C17.2528 1.99999 17.3041 2.00475 17.3534 2.01375L9.99999 7.73308L2.64655 2.01373ZM0.560229 1.10164C0.427638 1.16643 0.307403 1.2617 0.210694 1.38604C0.00564689 1.64967 -0.0466802 1.98363 0.0404007 2.28144C0.0138605 2.43338 0 2.58989 0 2.74998V13.2499C0 14.7911 1.28445 15.9999 2.79998 15.9999H17.1999C18.7154 15.9999 19.9999 14.7911 19.9999 13.2499V2.74998C19.9999 2.58996 19.986 2.43352 19.9595 2.28164C20.0467 1.98378 19.9944 1.64973 19.7893 1.38604C19.6925 1.26165 19.5722 1.16636 19.4396 1.10157C18.9235 0.428949 18.1027 0 17.1999 0H2.79998C1.89717 0 1.07636 0.428979 0.560229 1.10164ZM17.9999 4.04464V13.2499C17.9999 13.6338 17.6644 13.9999 17.1999 13.9999H2.79998C2.33553 13.9999 1.99999 13.6338 1.99999 13.2499V4.04456L9.38605 9.78928C9.74716 10.0701 10.2528 10.0701 10.6139 9.78928L17.9999 4.04464Z" fill="#3CE0A0"/>
</svg>
