<svg width="19" height="20" viewBox="0 0 19 20" fill="none" xmlns="http://www.w3.org/2000/svg">
<path d="M18.0822 13.2261L15.8734 11.0274C15.4231 10.5578 14.8655 10.3016 14.2651 10.3016C13.6861 10.3016 13.1285 10.5578 12.6567 11.0061L11.5416 12.1161C11.5201 12.0947 11.4772 12.0734 11.4558 12.0734L11.4129 12.052C11.3271 12.0093 11.2628 11.988 11.177 11.9453C11.1341 11.924 11.0698 11.8813 11.0269 11.8599C9.86889 11.1341 8.81809 10.1949 7.78874 8.93547C7.3384 8.38046 7.03817 7.93219 6.82372 7.48392C7.08106 7.22776 7.35984 6.97161 7.61718 6.71545L7.9603 6.37391C8.43208 5.90429 8.68942 5.32794 8.68942 4.75159C8.68942 4.17524 8.43208 3.62023 7.9603 3.15061L6.86661 2.0406C6.75939 1.91252 6.63072 1.78445 6.5235 1.65637C6.2876 1.40021 6.00882 1.12271 5.77293 0.909246C5.30114 0.460973 4.74358 0.204817 4.18601 0.204817C3.62845 0.204817 3.07088 0.439627 2.57765 0.8879L1.18374 2.27541C0.604728 2.85176 0.283056 3.53485 0.218721 4.34601C0.132942 5.5414 0.454614 6.63006 0.754842 7.46257C1.41963 9.25566 2.40609 10.9207 3.90723 12.6924C5.70859 14.8271 7.85307 16.5134 10.3407 17.7088C11.1985 18.1357 12.528 18.6907 14.0506 18.7975H14.308C15.3159 18.7975 16.1951 18.4132 16.8599 17.7088L16.9028 17.6661C17.0743 17.4527 17.2888 17.2392 17.5676 16.983C17.7606 16.8336 17.9321 16.6628 18.1251 16.4494C19.0258 15.4888 19.0258 14.1653 18.0822 13.2261ZM5.40837 6.48064C5.06525 6.82218 4.95802 7.22776 5.08669 7.67604C5.08669 7.74007 5.12958 7.78277 5.15103 7.82546C5.45126 8.52989 5.85871 9.21297 6.48061 9.98144C7.61718 11.369 8.81809 12.4576 10.1477 13.2901C10.2549 13.3542 10.3836 13.4182 10.4908 13.4822C10.5551 13.5036 10.598 13.5463 10.6409 13.5676L10.6838 13.589C10.7696 13.6317 10.8339 13.653 10.8982 13.6957C10.9626 13.717 11.0055 13.7597 11.0484 13.7811C11.0698 13.8024 11.1127 13.8024 11.1341 13.8238C11.3057 13.9092 11.4772 13.9519 11.6274 13.9519C11.9276 13.9519 12.2064 13.8238 12.4637 13.589L13.8576 12.2015C13.9434 12.1161 14.115 11.988 14.2436 11.988C14.3723 11.988 14.501 12.0947 14.6296 12.2015L16.8599 14.4215C17.0958 14.6563 17.0743 14.8271 17.0743 14.8697C17.0529 15.0192 16.9457 15.1686 16.8385 15.254L16.817 15.2967C16.7312 15.4034 16.624 15.5101 16.5168 15.6169C16.4739 15.6596 16.431 15.7023 16.3881 15.745L16.238 15.8944C16.0235 16.1078 15.8091 16.3213 15.5947 16.5775C15.2515 16.9403 14.8655 17.1111 14.308 17.1111H14.1364C12.9355 17.0044 11.8204 16.5348 11.0912 16.1932C8.83954 15.1046 6.86661 13.5676 5.23681 11.6251C3.90723 10.0241 2.9851 8.52989 2.3632 6.88622C1.99864 5.96833 1.86997 5.19986 1.93431 4.51678C1.9772 4.13254 2.12731 3.81235 2.40609 3.5135L3.77856 2.14733C3.86434 2.06195 4.01445 1.93387 4.16457 1.93387C4.31468 1.93387 4.46479 2.0406 4.57202 2.14733C4.74358 2.29676 4.87225 2.44618 5.0438 2.59561C5.12958 2.68099 5.21536 2.76638 5.30114 2.85176L6.78083 4.32466C6.93095 4.47408 7.01673 4.62351 7.01673 4.73024C7.01673 4.83697 6.93095 4.9864 6.78083 5.13582L6.41627 5.49871C6.07315 5.84025 5.75148 6.16044 5.40837 6.48064Z" fill="#3CE0A0" stroke="#3CE0A0" stroke-width="0.4"/>
</svg>
