<svg width="21" height="22" viewBox="0 0 21 22" fill="none" xmlns="http://www.w3.org/2000/svg">
<path d="M20.1944 14.7087L17.6994 12.2251C17.1907 11.6947 16.5609 11.4053 15.8826 11.4053C15.2285 11.4053 14.5987 11.6947 14.0658 12.201L12.8062 13.4549C12.7819 13.4308 12.7335 13.4067 12.7093 13.4067L12.6608 13.3825C12.5639 13.3343 12.4912 13.3102 12.3943 13.262C12.3459 13.2379 12.2732 13.1896 12.2248 13.1655C10.9167 12.3457 9.72971 11.2847 8.56696 9.86209C8.05826 9.23516 7.71913 8.72879 7.47689 8.22243C7.76757 7.93307 8.08249 7.64372 8.37317 7.35437L8.76076 6.96857C9.29368 6.43809 9.58437 5.78705 9.58437 5.136C9.58437 4.48496 9.29368 3.85803 8.76076 3.32755L7.52534 2.07369C7.40422 1.92902 7.25887 1.78434 7.13775 1.63966C6.87129 1.35031 6.55638 1.03685 6.28991 0.795719C5.75699 0.289352 5.12717 0 4.49734 0C3.86752 0 3.2377 0.26524 2.68055 0.771606L1.10599 2.33893C0.451948 2.98997 0.0885891 3.76158 0.0159173 4.67786C-0.0809784 6.02817 0.282381 7.25792 0.621516 8.19831C1.37246 10.2238 2.48676 12.1046 4.18243 14.1059C6.21724 16.5172 8.63964 18.4221 11.4496 19.7724C12.4186 20.2547 13.9205 20.8816 15.6404 21.0022H15.931C17.0696 21.0022 18.0627 20.5681 18.8137 19.7724L18.8621 19.7242C19.0559 19.4831 19.2982 19.2419 19.6131 18.9526C19.8311 18.7838 20.0249 18.5909 20.2429 18.3498C21.2603 17.2647 21.2603 15.7697 20.1944 14.7087ZM5.87811 7.08913C5.49053 7.47493 5.36941 7.93307 5.51475 8.43944C5.51475 8.51178 5.5632 8.56 5.58742 8.60823C5.92656 9.40395 6.38681 10.1756 7.0893 11.0436C8.37317 12.6109 9.72971 13.8407 11.2316 14.7811C11.3527 14.8534 11.4981 14.9258 11.6192 14.9981C11.6919 15.0222 11.7403 15.0704 11.7887 15.0945L11.8372 15.1187C11.9341 15.1669 12.0068 15.191 12.0794 15.2392C12.1521 15.2633 12.2006 15.3116 12.249 15.3357C12.2732 15.3598 12.3217 15.3598 12.3459 15.3839C12.5397 15.4803 12.7335 15.5286 12.903 15.5286C13.2422 15.5286 13.5571 15.3839 13.8478 15.1187L15.4223 13.5513C15.5192 13.4549 15.713 13.3102 15.8584 13.3102C16.0037 13.3102 16.1491 13.4308 16.2944 13.5513L18.8137 16.0591C19.0801 16.3243 19.0559 16.5172 19.0559 16.5654C19.0317 16.7342 18.9106 16.903 18.7895 16.9994L18.7652 17.0477C18.6683 17.1682 18.5472 17.2888 18.4261 17.4094C18.3777 17.4576 18.3292 17.5058 18.2808 17.554L18.1112 17.7228C17.869 17.964 17.6267 18.2051 17.3845 18.4944C16.9969 18.9043 16.5609 19.0972 15.931 19.0972H15.7372C14.3807 18.9767 13.1211 18.4462 12.2974 18.0604C9.75394 16.8307 7.52534 15.0945 5.68432 12.9003C4.18243 11.0918 3.1408 9.40395 2.43831 7.54727C2.0265 6.51043 1.88116 5.64237 1.95383 4.87076C2.00228 4.43674 2.17185 4.07504 2.48676 3.73747L4.03709 2.19425C4.13399 2.0978 4.30355 1.95313 4.47312 1.95313C4.64269 1.95313 4.81226 2.07369 4.93337 2.19425C5.12717 2.36304 5.27251 2.53183 5.4663 2.70062C5.5632 2.79707 5.66009 2.89352 5.75699 2.98997L7.42844 4.65375C7.59801 4.82254 7.6949 4.99133 7.6949 5.11189C7.6949 5.23245 7.59801 5.40124 7.42844 5.57003L7.01663 5.97995C6.62905 6.36575 6.26569 6.72744 5.87811 7.08913Z" fill="#363636"/>
</svg>
