<svg width="178" height="178" viewBox="0 0 178 178" fill="none" xmlns="http://www.w3.org/2000/svg">
<path d="M4.58906 173.411C1.63398 170.456 0 166.493 0 162.321C0 158.149 1.63398 154.186 4.58906 151.231L119.281 36.5389C121.332 34.4877 124.635 34.4877 126.651 36.5389L141.461 51.349C142.435 52.3225 142.991 53.6436 142.991 55.0342C142.991 56.4248 142.435 57.7459 141.461 58.7193L26.7695 173.411C23.7102 176.471 19.6773 178 15.6793 178C11.6812 178 7.64844 176.471 4.58906 173.411Z" fill="#D6D6D6"/>
<path d="M141.461 51.3489C142.435 52.3224 142.991 53.6435 142.991 55.0341C142.991 56.4247 142.435 57.7458 141.461 58.7192L26.7694 173.411C23.7101 176.47 19.6772 178 15.6792 178C11.6811 178 7.64833 176.47 4.58896 173.411L134.056 43.9438L141.461 51.3489Z" fill="#B2B2B2"/>
<path d="M109.929 136.142C147.523 136.142 178 105.666 178 68.0711C178 30.4765 147.523 0 109.929 0C72.3341 0 41.8576 30.4765 41.8576 68.0711C41.8576 105.666 72.3341 136.142 109.929 136.142Z" fill="#F9EBA0"/>
<path d="M158.045 19.9556C170.352 32.2626 178 49.2978 178 68.0712C178 105.583 147.476 136.142 109.929 136.142C91.1556 136.142 74.1552 128.494 61.8134 116.187L158.045 19.9556Z" fill="#FFD900"/>
<path d="M109.929 115.179C135.946 115.179 157.036 94.088 157.036 68.0713C157.036 42.0546 135.946 20.9639 109.929 20.9639C83.9121 20.9639 62.8214 42.0546 62.8214 68.0713C62.8214 94.088 83.9121 115.179 109.929 115.179Z" fill="#E1FAFF"/>
<path d="M109.929 115.144C96.9264 115.144 85.1756 109.859 76.6232 101.342L143.234 34.7656C151.752 43.2832 157.036 55.0688 157.036 68.0711C157.071 94.041 135.933 115.144 109.929 115.144Z" fill="#C7F5FF"/>
</svg>
