<svg width="39" height="37" viewBox="0 0 39 37" fill="none" xmlns="http://www.w3.org/2000/svg">
<path d="M35.6066 3.90049C33.5898 1.73167 30.811 0.465264 27.8828 0.381848C24.9546 0.298432 22.1011 1.39801 19.9721 3.4455L19.4866 3.90808C15.296 -0.603979 8.29669 -0.816311 3.8521 3.43791C-0.592489 7.69214 -0.801647 14.7977 3.38897 19.3097L4.47957 20.4851C4.01644 21.5696 4.16584 22.8132 4.86801 23.7535C5.57018 24.6939 6.7056 25.1792 7.85597 25.0351C7.66175 26.0664 7.96801 27.1281 8.67765 27.8864C9.38729 28.6523 10.4107 29.0163 11.434 28.8798C11.2398 29.9112 11.5461 30.9728 12.2557 31.7312C12.9654 32.4971 13.9888 32.8611 15.0121 32.7246C14.7582 34.1199 15.4155 35.5304 16.648 36.2053C17.8806 36.8802 19.397 36.683 20.4203 35.7124C24.0582 32.2241 23.9461 32.3985 24.2897 31.8146C25.3505 32.3454 26.6204 32.2392 27.584 31.5416C28.5476 30.8439 29.0555 29.6609 28.9061 28.4628C29.922 28.6523 30.9604 28.3414 31.7148 27.6286C32.4618 26.9082 32.8278 25.8693 32.6934 24.8304C34.0753 25.0882 35.4722 24.4057 36.1295 23.1469C36.7944 21.888 36.5777 20.3335 35.5992 19.3097C39.6254 14.9948 39.6329 8.22297 35.6066 3.90049ZM6.02584 23.1545C5.27885 22.3506 5.3162 21.0842 6.10801 20.3259L9.42464 17.1485C10.2165 16.4053 11.449 16.4508 12.1885 17.2471C12.928 18.0433 12.8981 19.2946 12.1213 20.0605L8.80464 23.2379C8.0203 23.9886 6.77283 23.9583 6.02584 23.1545ZM9.60392 26.9992C8.85693 26.1954 8.89428 24.9289 9.68609 24.1706L13.0027 20.9932C13.7945 20.2349 15.042 20.2728 15.7815 21.0766C16.5285 21.8805 16.4912 23.1469 15.6994 23.8976L12.3827 27.075C11.5909 27.8333 10.3509 27.7954 9.60392 26.9992ZM13.182 30.8515C12.435 30.0477 12.4724 28.7813 13.2642 28.0305L16.5808 24.8531C17.3801 24.1403 18.5827 24.201 19.3073 24.982C20.0319 25.7631 20.0244 26.9916 19.2774 27.7575L15.9608 30.9349C15.169 31.6857 13.929 31.6477 13.182 30.8515ZM19.5389 34.7796C19.0309 35.2726 18.2989 35.447 17.6266 35.2422C16.9543 35.0375 16.4389 34.4839 16.2745 33.7862C16.1102 33.0886 16.3268 32.3606 16.8423 31.8752L20.1589 28.6978C20.9507 27.9547 22.1832 28.0002 22.9228 28.7964C23.6623 29.5927 23.6324 30.8439 22.8555 31.6098L19.5389 34.7796ZM34.6131 23.0559C34.2322 23.4199 33.7242 23.617 33.2088 23.6019C32.6934 23.5867 32.1929 23.3592 31.8343 22.9725L23.3411 13.8346C23.102 13.5768 22.6987 13.5616 22.4372 13.8118C22.1832 14.0545 22.1683 14.464 22.4148 14.7294L30.9081 23.8673C31.3936 24.383 31.5654 25.1261 31.3637 25.8086C31.162 26.4911 30.6167 27.0144 29.9295 27.1812C29.2423 27.348 28.5252 27.1281 28.0471 26.6124L19.5538 17.467C19.397 17.3002 19.1654 17.2243 18.9413 17.285C18.7172 17.3381 18.5454 17.5049 18.4782 17.7324C18.4109 17.9523 18.4707 18.195 18.6276 18.3618L27.1208 27.4997C27.7931 28.2201 27.8379 29.3348 27.2329 30.1083C26.6278 30.8818 25.5522 31.0942 24.7081 30.5937C24.8425 29.6685 24.5736 28.7282 23.9835 28.0153C23.3934 27.3025 22.5268 26.8779 21.6006 26.8551C20.8984 26.8399 21.1524 27.1054 21.1748 26.3925C21.1972 25.5204 20.8835 24.6711 20.2933 24.0341C19.7032 23.3971 18.889 23.0255 18.03 23.0028C17.3278 22.98 17.5818 23.2606 17.6042 22.5402C17.6266 21.6681 17.3129 20.8188 16.7227 20.1818C16.1326 19.5448 15.3184 19.1732 14.4594 19.1505C13.7572 19.1277 14.0112 19.4159 14.0336 18.6879C14.0709 17.3608 13.309 16.1399 12.1138 15.5939C10.9186 15.0479 9.52175 15.2906 8.56561 16.2006C4.00897 20.5686 5.57765 19.0595 5.2415 19.3856L4.3227 18.4225C0.610164 14.4261 0.796912 8.13955 4.72608 4.37824C8.65524 0.61693 14.8478 0.798929 18.5603 4.79532L13.3389 9.80029C12.8459 10.2856 12.5545 10.9378 12.5247 11.6354C12.4574 14.2896 16.3567 15.9655 18.7321 13.6829L23.4905 9.12538C23.61 9.00405 23.7743 8.94338 23.9461 8.95096C24.1179 8.95855 24.2748 9.0268 24.3943 9.15571C25.6418 10.498 33.5001 18.9457 34.6953 20.2349C35.0539 20.6216 35.2481 21.1373 35.2331 21.6606C35.2182 22.1838 34.9941 22.6919 34.6131 23.0559ZM34.7252 18.377L25.3206 8.26088C24.9695 7.8893 24.4914 7.66939 23.9835 7.65422C23.4755 7.63905 22.9825 7.82864 22.6165 8.18505L17.8582 12.7426C17.3502 13.2279 16.6779 13.4858 15.9832 13.463C15.2885 13.4403 14.6312 13.1369 14.1531 12.6213C13.9141 12.3634 13.7871 12.0222 13.7945 11.6658C13.802 11.3094 13.9514 10.9757 14.2054 10.733L20.8461 4.37824C24.6856 0.692763 30.7139 0.768596 34.4637 4.54507C38.2136 8.32155 38.3332 14.4488 34.7252 18.377Z" fill="#3CE0A0" stroke="#3CE0A0" stroke-width="0.75"/>
</svg>
