<svg width="35" height="40" viewBox="0 0 35 40" fill="none" xmlns="http://www.w3.org/2000/svg">
<path fill-rule="evenodd" clip-rule="evenodd" d="M17.4379 0C12.2375 0 8.0847 4.33045 8.0847 9.59353C8.0847 14.8566 12.2375 19.1871 17.4379 19.1871C22.6383 19.1871 26.7911 14.8566 26.7911 9.59353C26.7911 4.33045 22.6383 0 17.4379 0ZM10.6217 9.59353C10.6217 5.66106 13.7082 2.53704 17.4379 2.53704C21.1676 2.53704 24.2541 5.66106 24.2541 9.59353C24.2541 13.526 21.1676 16.65 17.4379 16.65C13.7082 16.65 10.6217 13.526 10.6217 9.59353ZM9.35322 24.9754C4.15281 24.9754 0 29.3059 0 34.5689V38.7314C0 39.432 0.567936 40 1.26852 40C1.9691 40 2.53704 39.432 2.53704 38.7314V34.5689C2.53704 30.6365 5.62351 27.5125 9.35322 27.5125H25.5226C29.2523 27.5125 32.3388 30.6365 32.3388 34.5689V38.7314C32.3388 39.432 32.9067 40 33.6073 40C34.3079 40 34.8758 39.432 34.8758 38.7314V34.5689C34.8758 29.3059 30.723 24.9754 25.5226 24.9754H9.35322Z" fill="white"/>
</svg>
