<svg width="24" height="19" viewBox="0 0 24 19" fill="none" xmlns="http://www.w3.org/2000/svg">
<path fill-rule="evenodd" clip-rule="evenodd" d="M1.98197 2.29362C2.23109 1.96351 2.64835 1.7311 3.15319 1.7311H20.847C21.3518 1.7311 21.769 1.96346 22.0181 2.29351L12 9.44933L1.98197 2.29362ZM0.342697 2.00564C0.327305 2.02356 0.31258 2.04232 0.298585 2.06191C0.163008 2.25172 0.123428 2.48108 0.170212 2.69219C0.157904 2.79777 0.151569 2.90536 0.151569 3.01469V15.4556C0.151569 17.0796 1.54929 18.319 3.15319 18.319H20.847C22.4509 18.319 23.8486 17.0796 23.8486 15.4556V3.01469C23.8486 2.90513 23.8422 2.79731 23.8299 2.69151C23.8764 2.48059 23.8368 2.25152 23.7014 2.06191C23.6875 2.0425 23.6729 2.0239 23.6577 2.00613C23.2225 0.90462 22.0974 0.151299 20.847 0.151299H3.15319C1.90298 0.151299 0.77804 0.904395 0.342697 2.00564ZM22.2688 4.05588V15.4556C22.2688 16.1126 21.676 16.7392 20.847 16.7392H3.15319C2.3242 16.7392 1.73137 16.1126 1.73137 15.4556V4.05604L11.5409 11.0628C11.8155 11.259 12.1844 11.259 12.4591 11.0628L22.2688 4.05588Z" fill="#363636"/>
<path d="M1.98197 2.29362L1.86112 2.20242C1.83652 2.23502 1.82613 2.27618 1.83232 2.31655C1.83851 2.35692 1.86074 2.39308 1.89397 2.41681L1.98197 2.29362ZM22.0181 2.29351L22.1061 2.41671C22.1394 2.39297 22.1616 2.35681 22.1678 2.31643C22.174 2.27606 22.1636 2.2349 22.139 2.2023L22.0181 2.29351ZM12 9.44933L11.912 9.57253C11.9646 9.61013 12.0353 9.61013 12.088 9.57253L12 9.44933ZM0.298585 2.06191L0.175388 1.97391L0.175388 1.97391L0.298585 2.06191ZM0.342697 2.00564L0.457546 2.10428C0.468527 2.0915 0.477296 2.07697 0.483492 2.0613L0.342697 2.00564ZM0.170212 2.69219L0.320591 2.70972C0.322548 2.69293 0.32168 2.67593 0.318023 2.65943L0.170212 2.69219ZM23.8299 2.69151L23.682 2.65888C23.6784 2.67536 23.6775 2.69232 23.6795 2.70908L23.8299 2.69151ZM23.7014 2.06191L23.5782 2.14991V2.14991L23.7014 2.06191ZM23.6577 2.00613L23.5169 2.06176C23.523 2.07741 23.5318 2.09191 23.5427 2.10468L23.6577 2.00613ZM22.2688 4.05588H22.4202C22.4202 3.99917 22.3885 3.94721 22.3381 3.92126C22.2877 3.89531 22.227 3.89972 22.1808 3.93268L22.2688 4.05588ZM1.73137 4.05604L1.81937 3.93284C1.77322 3.89988 1.71252 3.89547 1.66209 3.92142C1.61167 3.94737 1.57997 3.99933 1.57997 4.05604H1.73137ZM11.5409 11.0628L11.6289 10.9396L11.5409 11.0628ZM12.4591 11.0628L12.3711 10.9396L12.4591 11.0628ZM3.15319 1.5797C2.60045 1.5797 2.13861 1.83473 1.86112 2.20242L2.10282 2.38482C2.32358 2.09229 2.69626 1.8825 3.15319 1.8825V1.5797ZM20.847 1.5797H3.15319V1.8825H20.847V1.5797ZM22.139 2.2023C21.8615 1.83467 21.3997 1.5797 20.847 1.5797V1.8825C21.3039 1.8825 21.6765 2.09224 21.8973 2.38472L22.139 2.2023ZM12.088 9.57253L22.1061 2.41671L21.9301 2.17031L11.912 9.32613L12.088 9.57253ZM1.89397 2.41681L11.912 9.57253L12.088 9.32613L2.06997 2.17042L1.89397 2.41681ZM0.421782 2.14991C0.433151 2.13399 0.44509 2.11878 0.457546 2.10428L0.227847 1.90699C0.20952 1.92833 0.192009 1.95064 0.175388 1.97391L0.421782 2.14991ZM0.318023 2.65943C0.280137 2.48847 0.312198 2.30333 0.421783 2.14991L0.175388 1.97391C0.0138182 2.20011 -0.0332812 2.47368 0.0223998 2.72494L0.318023 2.65943ZM0.302966 3.01469C0.302966 2.91122 0.308962 2.80948 0.320591 2.70972L0.0198319 2.67466C0.00684618 2.78606 0.000170945 2.8995 0.000170945 3.01469H0.302966ZM0.302966 15.4556V3.01469H0.000170945V15.4556H0.302966ZM3.15319 18.1676C1.62278 18.1676 0.302966 16.9862 0.302966 15.4556H0.000170945C0.000170945 17.1729 1.4758 18.4704 3.15319 18.4704V18.1676ZM20.847 18.1676H3.15319V18.4704H20.847V18.1676ZM23.6972 15.4556C23.6972 16.9862 22.3774 18.1676 20.847 18.1676V18.4704C22.5244 18.4704 24 17.1729 24 15.4556H23.6972ZM23.6972 3.01469V15.4556H24V3.01469H23.6972ZM23.6795 2.70908C23.6912 2.80905 23.6972 2.911 23.6972 3.01469H24C24 2.89926 23.9933 2.78558 23.9803 2.67394L23.6795 2.70908ZM23.5782 2.14991C23.6876 2.30316 23.7197 2.48807 23.682 2.65888L23.9777 2.72414C24.0331 2.4731 23.986 2.19987 23.8246 1.97391L23.5782 2.14991ZM23.5427 2.10468C23.5551 2.11907 23.5669 2.13414 23.5782 2.14991L23.8246 1.97391C23.8081 1.95086 23.7907 1.92874 23.7726 1.90758L23.5427 2.10468ZM20.847 0.302697C22.0382 0.302697 23.1056 1.02075 23.5169 2.06176L23.7985 1.9505C23.3394 0.788488 22.1566 -9.85722e-05 20.847 -9.85722e-05V0.302697ZM3.15319 0.302697H20.847V-9.85722e-05H3.15319V0.302697ZM0.483492 2.0613C0.894925 1.02054 1.96215 0.302697 3.15319 0.302697V-9.85722e-05C1.84381 -9.85722e-05 0.661155 0.788252 0.201901 1.94998L0.483492 2.0613ZM22.4202 15.4556V4.05588H22.1174V15.4556H22.4202ZM20.847 16.8906C21.7519 16.8906 22.4202 16.2037 22.4202 15.4556H22.1174C22.1174 16.0215 21.6001 16.5878 20.847 16.5878V16.8906ZM3.15319 16.8906H20.847V16.5878H3.15319V16.8906ZM1.57997 15.4556C1.57997 16.2037 2.24828 16.8906 3.15319 16.8906V16.5878C2.40012 16.5878 1.88277 16.0215 1.88277 15.4556H1.57997ZM1.57997 4.05604V15.4556H1.88277V4.05604H1.57997ZM11.6289 10.9396L1.81937 3.93284L1.64337 4.17924L11.4529 11.186L11.6289 10.9396ZM12.3711 10.9396C12.1491 11.0982 11.8509 11.0982 11.6289 10.9396L11.4529 11.186C11.7801 11.4198 12.2198 11.4198 12.5471 11.186L12.3711 10.9396ZM22.1808 3.93268L12.3711 10.9396L12.5471 11.186L22.3568 4.17907L22.1808 3.93268Z" fill="#363636"/>
</svg>
