<svg width="11" height="12" viewBox="0 0 11 12" fill="none" xmlns="http://www.w3.org/2000/svg">
<path fill-rule="evenodd" clip-rule="evenodd" d="M5.39988 0C3.69027 0 2.31011 1.39101 2.31011 3.0998C2.31011 4.80858 3.69027 6.19959 5.39988 6.19959C7.1095 6.19959 8.48966 4.80858 8.48966 3.0998C8.48966 1.39101 7.1095 0 5.39988 0ZM3.86944 3.0998C3.86944 2.24583 4.55782 1.55932 5.39988 1.55932C6.24195 1.55932 6.93033 2.24583 6.93033 3.0998C6.93033 3.95376 6.24195 4.64027 5.39988 4.64027C4.55782 4.64027 3.86944 3.95376 3.86944 3.0998ZM3.08977 6.96051C1.38016 6.96051 0 8.35152 0 10.0603V11.2204C0 11.651 0.349067 12 0.779662 12C1.21026 12 1.55932 11.651 1.55932 11.2204V10.0603C1.55932 9.20634 2.24771 8.51983 3.08977 8.51983H7.71C8.55206 8.51983 9.24044 9.20634 9.24044 10.0603V11.2204C9.24044 11.651 9.58951 12 10.0201 12C10.4507 12 10.7998 11.651 10.7998 11.2204V10.0603C10.7998 8.35152 9.41961 6.96051 7.71 6.96051H3.08977Z" fill="#363636"/>
</svg>
