<svg width="32" height="32" viewBox="0 0 39 39" fill="none" xmlns="http://www.w3.org/2000/svg">
<path d="M35.5723 4.57032H15.958C15.4248 1.96524 13.1168 0 10.3594 0H3.42774C1.53867 0 0 1.53867 0 3.42774V35.5723C0 37.4614 1.53867 39 3.42774 39H35.5723C37.4613 39 39 37.4614 39 35.5723C39 33.1196 39 11.7609 39 7.99805C39 6.10899 37.4613 4.57032 35.5723 4.57032ZM3.42774 2.28516H10.3594C12.2484 2.28516 13.7871 3.82383 13.7871 5.71289C13.7871 6.34512 14.2975 6.85547 14.9297 6.85547H35.5723C36.2045 6.85547 36.7149 7.36582 36.7149 7.99805V13.7109H34.4297V10.2832C34.4297 9.65098 33.9194 9.14063 33.2871 9.14063H5.71289C5.08067 9.14063 4.57031 9.65098 4.57031 10.2832V13.7109H2.28516V3.42774C2.28516 2.79551 2.79551 2.28516 3.42774 2.28516ZM6.85547 13.7109V11.4258H32.1445V13.7109H6.85547ZM36.7149 35.5723C36.7149 36.2045 36.2045 36.7149 35.5723 36.7149H3.42774C2.79551 36.7149 2.28516 36.2045 2.28516 35.5723V15.9961H36.7149V35.5723Z" fill="#3CE0A0"/>
</svg>
