<svg width="16" height="20" viewBox="0 0 16 20" fill="none" xmlns="http://www.w3.org/2000/svg">
<path d="M7.42 19.8138C7.58925 19.9346 7.79202 19.9996 8 19.9996C8.20797 19.9996 8.41074 19.9346 8.57999 19.8138C8.88399 19.5988 16.0289 14.4398 15.9999 7.99991C15.9999 3.58896 12.4109 0 8 0C3.58905 0 8.80367e-05 3.58896 8.80367e-05 7.99491C-0.0289116 14.4398 7.11601 19.5988 7.42 19.8138ZM8 1.99998C11.309 1.99998 13.9999 4.69095 13.9999 8.00491C14.0209 12.4429 9.61198 16.4278 8 17.7348C6.38901 16.4268 1.97907 12.4409 2.00007 7.99991C2.00007 4.69095 4.69103 1.99998 8 1.99998Z" fill="#3CE0A0"/>
</svg>
