<svg width="29" height="30" viewBox="0 0 29 30" fill="none" xmlns="http://www.w3.org/2000/svg">
<path d="M28.9248 15.0302C28.9465 17.0501 28.5568 19.0699 27.799 20.9377C27.0846 22.6969 26.0238 24.3258 24.7031 25.6941C23.3825 27.0407 21.8454 28.1049 20.1134 28.8433C16.5196 30.3853 12.4494 30.3853 8.85557 28.8433C5.34833 27.323 2.57718 24.4996 1.1483 20.9377C0.36891 19.0699 -0.0207943 17.0501 0.000855377 15.0302C-0.0207943 12.967 0.368902 10.9471 1.12664 9.03588C2.55552 5.47401 5.32668 2.62887 8.83393 1.13028C10.6092 0.370123 12.5144 -0.0208133 14.4412 0.000905411C16.368 -0.0208133 18.2948 0.348404 20.0918 1.08684C21.8021 1.78184 23.3608 2.80262 24.6815 4.12746C26.0238 5.49573 27.0629 7.10291 27.7774 8.86213C28.5784 10.8168 28.9681 12.9235 28.9248 15.0302ZM21.6505 15.0302C21.6722 13.9443 21.4773 12.8584 21.0876 11.8593C20.7412 10.9471 20.2 10.1218 19.5505 9.42681C18.901 8.75353 18.1216 8.21057 17.2556 7.86307C15.4587 7.14635 13.467 7.14635 11.67 7.86307C10.804 8.21057 10.0463 8.75353 9.39682 9.42681C8.74733 10.1435 8.22773 10.9688 7.88134 11.8593C7.49164 12.8801 7.2968 13.9443 7.31845 15.0302C7.31845 16.0727 7.49165 17.0935 7.85969 18.0708C8.20609 18.983 8.72568 19.8083 9.37517 20.5033C10.0247 21.1983 10.7824 21.7413 11.6484 22.1322C12.5144 22.5232 13.4669 22.7404 14.4412 22.7404C15.3938 22.7404 16.3464 22.5666 17.234 22.1757C18.1 21.8065 18.8794 21.2852 19.5289 20.6119C20.2 19.9169 20.7412 19.0699 21.0876 18.1794C21.4773 17.1804 21.6722 16.0944 21.6505 15.0302Z" fill="#FFD900"/>
</svg>
